<svg width="1504" height="417" viewBox="0 0 1504 417" fill="none" xmlns="http://www.w3.org/2000/svg">
<g clip-path="url(#clip0_220_78)">
<path d="M203.8 88.8135C176.867 89.8717 151.074 99.9669 130.578 117.472C110.081 134.977 96.0756 158.873 90.8171 185.31C85.5586 211.746 89.3536 239.183 101.591 263.199C113.828 287.216 133.794 306.413 158.272 317.698C182.751 328.982 210.315 331.697 236.525 325.405C262.734 319.112 286.062 304.179 302.749 283.012C319.437 261.844 328.511 235.675 328.511 208.72H208.511H35.5283M203.8 88.8135C230.734 87.7553 257.239 95.7956 279.046 111.638M203.8 88.8135V23.1133" stroke="#0E0F10" stroke-width="36"/>
<path d="M208.197 398.721C313.131 398.721 398.197 313.655 398.197 208.721C398.197 103.787 313.131 18.7207 208.197 18.7207C103.263 18.7207 18.197 103.787 18.197 208.721C18.197 313.655 103.263 398.721 208.197 398.721Z" stroke="#0E0F10" stroke-width="36"/>
</g>
<path d="M683.568 169C681.224 161.827 678.135 155.399 674.3 149.717C670.536 143.964 666.026 139.064 660.77 135.016C655.585 130.967 649.69 127.878 643.085 125.747C636.48 123.616 629.236 122.551 621.352 122.551C608.426 122.551 596.672 125.889 586.089 132.565C575.507 139.241 567.091 149.078 560.841 162.075C554.591 175.072 551.466 191.017 551.466 209.909C551.466 228.801 554.626 244.746 560.947 257.743C567.268 270.74 575.827 280.577 586.622 287.253C597.418 293.929 609.563 297.267 623.057 297.267C635.557 297.267 646.565 294.604 656.082 289.277C665.67 283.879 673.128 276.28 678.455 266.479C683.852 256.607 686.551 244.994 686.551 231.642L694.648 233.347H629.023V209.909H712.119V233.347C712.119 251.315 708.284 266.94 700.614 280.222C693.014 293.503 682.503 303.801 669.08 311.116C655.727 318.361 640.386 321.983 623.057 321.983C603.739 321.983 586.764 317.438 572.134 308.347C557.574 299.256 546.21 286.33 538.043 269.568C529.946 252.807 525.898 232.92 525.898 209.909C525.898 192.651 528.206 177.132 532.822 163.354C537.51 149.504 544.115 137.714 552.638 127.984C561.161 118.254 571.246 110.797 582.893 105.612C594.541 100.428 607.361 97.8352 621.352 97.8352C632.858 97.8352 643.582 99.5753 653.526 103.055C663.54 106.464 672.453 111.33 680.266 117.651C688.149 123.901 694.719 131.393 699.974 140.129C705.23 148.794 708.852 158.418 710.841 169H683.568ZM764.214 319V155.364H789.357V319H764.214ZM776.999 128.091C772.098 128.091 767.872 126.422 764.321 123.084C760.841 119.746 759.101 115.733 759.101 111.045C759.101 106.358 760.841 102.345 764.321 99.0071C767.872 95.669 772.098 94 776.999 94C781.899 94 786.089 95.669 789.57 99.0071C793.121 102.345 794.896 106.358 794.896 111.045C794.896 115.733 793.121 119.746 789.57 123.084C786.089 126.422 781.899 128.091 776.999 128.091ZM835.406 319V155.364H859.696V180.932H861.826C865.235 172.196 870.74 165.413 878.339 160.584C885.939 155.683 895.065 153.233 905.718 153.233C916.514 153.233 925.498 155.683 932.672 160.584C939.916 165.413 945.562 172.196 949.61 180.932H951.315C955.505 172.48 961.791 165.768 970.172 160.797C978.552 155.754 988.602 153.233 1000.32 153.233C1014.95 153.233 1026.92 157.814 1036.22 166.976C1045.53 176.067 1050.18 190.236 1050.18 209.483V319H1025.04V209.483C1025.04 197.409 1021.73 188.78 1015.13 183.595C1008.52 178.411 1000.75 175.818 991.798 175.818C980.292 175.818 971.379 179.298 965.058 186.259C958.737 193.148 955.576 201.884 955.576 212.466V319H930.008V206.926C930.008 197.622 926.99 190.129 920.953 184.447C914.916 178.695 907.139 175.818 897.622 175.818C891.088 175.818 884.98 177.558 879.298 181.038C873.687 184.518 869.142 189.348 865.662 195.527C862.252 201.635 860.548 208.702 860.548 216.727V319H835.406ZM1099.56 319V100.818H1124.7V181.358H1126.83C1128.68 178.517 1131.23 174.895 1134.5 170.491C1137.84 166.017 1142.6 162.04 1148.78 158.56C1155.03 155.009 1163.48 153.233 1174.13 153.233C1187.91 153.233 1200.05 156.678 1210.57 163.567C1221.08 170.456 1229.28 180.222 1235.18 192.864C1241.07 205.506 1244.02 220.42 1244.02 237.608C1244.02 254.938 1241.07 269.959 1235.18 282.672C1229.28 295.314 1221.11 305.115 1210.67 312.075C1200.23 318.964 1188.19 322.409 1174.56 322.409C1164.05 322.409 1155.63 320.669 1149.31 317.189C1142.99 313.638 1138.12 309.625 1134.71 305.151C1131.3 300.605 1128.68 296.841 1126.83 293.858H1123.85V319H1099.56ZM1124.27 237.182C1124.27 249.54 1126.08 260.442 1129.71 269.888C1133.33 279.263 1138.62 286.614 1145.58 291.94C1152.54 297.196 1161.06 299.824 1171.15 299.824C1181.66 299.824 1190.43 297.054 1197.46 291.514C1204.56 285.903 1209.89 278.375 1213.44 268.929C1217.06 259.412 1218.88 248.83 1218.88 237.182C1218.88 225.676 1217.1 215.307 1213.55 206.074C1210.07 196.77 1204.78 189.419 1197.68 184.021C1190.64 178.553 1181.8 175.818 1171.15 175.818C1160.92 175.818 1152.33 178.411 1145.37 183.595C1138.41 188.709 1133.15 195.882 1129.6 205.115C1126.05 214.277 1124.27 224.966 1124.27 237.182ZM1330.63 322.835C1320.26 322.835 1310.85 320.882 1302.4 316.976C1293.95 312.999 1287.23 307.281 1282.26 299.824C1277.29 292.295 1274.81 283.205 1274.81 272.551C1274.81 263.176 1276.65 255.577 1280.35 249.753C1284.04 243.858 1288.97 239.241 1295.15 235.903C1301.33 232.565 1308.15 230.08 1315.61 228.446C1323.14 226.741 1330.7 225.392 1338.3 224.398C1348.24 223.119 1356.3 222.161 1362.48 221.521C1368.73 220.811 1373.28 219.639 1376.12 218.006C1379.03 216.372 1380.49 213.531 1380.49 209.483V208.631C1380.49 198.119 1377.61 189.952 1371.86 184.128C1366.18 178.304 1357.55 175.392 1345.97 175.392C1333.97 175.392 1324.56 178.02 1317.74 183.276C1310.92 188.531 1306.13 194.142 1303.36 200.108L1279.49 191.585C1283.75 181.642 1289.44 173.901 1296.54 168.361C1303.71 162.75 1311.52 158.844 1319.98 156.642C1328.5 154.369 1336.88 153.233 1345.12 153.233C1350.37 153.233 1356.41 153.872 1363.23 155.151C1370.12 156.358 1376.76 158.879 1383.15 162.714C1389.61 166.55 1394.98 172.338 1399.24 180.08C1403.5 187.821 1405.63 198.19 1405.63 211.188V319H1380.49V296.841H1379.21C1377.5 300.392 1374.66 304.192 1370.69 308.24C1366.71 312.288 1361.42 315.733 1354.81 318.574C1348.21 321.415 1340.15 322.835 1330.63 322.835ZM1334.46 300.25C1344.41 300.25 1352.79 298.297 1359.61 294.391C1366.5 290.484 1371.68 285.442 1375.16 279.263C1378.71 273.084 1380.49 266.585 1380.49 259.767V236.756C1379.42 238.034 1377.08 239.206 1373.46 240.271C1369.91 241.266 1365.79 242.153 1361.1 242.935C1356.48 243.645 1351.97 244.284 1347.57 244.852C1343.24 245.349 1339.72 245.776 1337.02 246.131C1330.49 246.983 1324.38 248.368 1318.7 250.286C1313.09 252.132 1308.54 254.937 1305.06 258.702C1301.65 262.395 1299.95 267.437 1299.95 273.83C1299.95 282.565 1303.18 289.17 1309.64 293.645C1316.18 298.048 1324.45 300.25 1334.46 300.25ZM1476.66 100.818V319H1451.52V100.818H1476.66Z" fill="#191A1F"/>
<defs>
<clipPath id="clip0_220_78">
<rect width="417" height="417" fill="white"/>
</clipPath>
</defs>
</svg>
